<svg width="669" height="468" viewBox="0 0 669 468" fill="none" xmlns="http://www.w3.org/2000/svg">
<g clip-path="url(#clip0_1763_4146)">
<rect width="669" height="468" fill="white"/>
<path d="M740.124 0H10C4.47715 0 0 4.47717 0 10V451.817C0 457.34 4.47718 461.817 10 461.817H740.124C745.647 461.817 750.124 457.34 750.124 451.817V10C750.124 4.47715 745.646 0 740.124 0Z" fill="#E6E6E6"/>
<path d="M738.237 21.9082H12.7637C10.5545 21.9082 8.76367 23.6991 8.76367 25.9082V448.178C8.76367 450.387 10.5545 452.178 12.7636 452.178H738.237C740.447 452.178 742.237 450.387 742.237 448.178V25.9082C742.237 23.6991 740.447 21.9082 738.237 21.9082Z" fill="white"/>
<rect x="410.99" y="399.599" width="257.636" height="7.0105" rx="3.50525" fill="#E1E3E5"/>
<rect x="410.99" y="379.443" width="257.636" height="7.0105" rx="3.50525" fill="#E1E3E5"/>
<rect x="410.99" y="359.288" width="257.636" height="7.0105" rx="3.50525" fill="#E1E3E5"/>
<path d="M663.626 327.999H415.99V89.126H663.626V327.999Z" fill="white" stroke="#E6E6E6" stroke-width="10"/>
<path d="M622.744 164.603H456.873V171.659H622.744V164.603Z" fill="#656565"/>
<path d="M622.744 204.913H456.873V211.97H622.744V204.913Z" fill="#656565"/>
<path d="M622.744 245.224H456.873V252.28H622.744V245.224Z" fill="#656565"/>
<path d="M484.849 154.11H477.639V182.152H484.849V154.11Z" fill="#BE1816"/>
<path d="M535.838 194.662H528.627V222.704H535.838V194.662Z" fill="#BE1816"/>
<path d="M599.703 234.973H592.492V263.015H599.703V234.973Z" fill="#BE1816"/>
<path d="M0 10C0 4.47716 4.47715 0 10 0H741C746.523 0 751 4.47716 751 10V13.1447H0V10Z" fill="#580101"/>
<path d="M144.803 83.7588H76.1562V152.406H144.803V83.7588Z" fill="#580101"/>
<path d="M240.266 84.1523H171.619V152.799H240.266V84.1523Z" fill="#E6E6E6"/>
<path d="M240.537 178.447H171.891V406.865H240.537V178.447Z" fill="#BE1816"/>
<path d="M142.93 177.938H74.2832V294.805H142.93V177.938Z" fill="#E6E6E6"/>
<path d="M142.93 320.596H74.2832V406.356H142.93V320.596Z" fill="#E6E6E6"/>
<path d="M338.145 84.6211H269.498V294.805H338.145V84.6211Z" fill="#E6E6E6"/>
<path d="M337.873 320.806H269.227V406.615H337.873V320.806Z" fill="#E6E6E6"/>
</g>
<defs>
<clipPath id="clip0_1763_4146">
<rect width="669" height="468" fill="white"/>
</clipPath>
</defs>
</svg>
