<svg width="642" height="603" viewBox="0 0 642 603" fill="none" xmlns="http://www.w3.org/2000/svg">
<g clip-path="url(#clip0_1795_4318)">
<path d="M647.685 17.0967L5.37134 134.474C5.27313 134.678 5.19641 134.891 5.14246 135.111L5.14008 135.121L5.1377 135.13C5.04602 135.498 4.99982 135.875 5 136.253V136.255V149.391V478.762C5.00018 479.139 5.04663 479.515 5.13824 479.881L5.14093 479.892L5.14349 479.903C5.19629 480.118 5.27087 480.326 5.36603 480.526L647.691 597.905L647.711 597.909L647.731 597.913C648.376 598.036 649.039 598.029 649.68 597.891C650.136 597.791 650.564 597.592 650.933 597.309C651.248 597.062 651.502 596.746 651.675 596.388C651.894 595.916 652.005 595.403 652 594.884L652 594.86V594.837V34.4256V20.1578V20.136L652 20.1142C652.004 19.5958 651.893 19.0826 651.674 18.6116C651.501 18.2534 651.247 17.9382 650.931 17.6907C650.564 17.409 650.138 17.2107 649.683 17.1106C649.039 16.9722 648.374 16.9648 647.728 17.0887L647.707 17.0928L647.685 17.0967ZM0.28656 133.919C0.0958252 134.683 -0.000427246 135.468 0 136.255L0.28656 133.919Z" stroke="#E6E6E6" stroke-width="10"/>
<path fill-rule="evenodd" clip-rule="evenodd" d="M3.66503 129.703L646.786 12.1782C648.096 11.9271 649.442 11.943 650.745 12.2248C651.927 12.483 653.037 12.9998 653.994 13.7381C654.929 14.4658 655.682 15.4008 656.192 16.4691C656.735 17.6228 657.011 18.8834 657 20.1578V594.837C657.012 596.111 656.736 597.373 656.194 598.527C655.685 599.595 654.933 600.531 653.998 601.259C653.042 601.998 651.933 602.516 650.751 602.775C649.449 603.058 648.102 603.074 646.792 602.824L3.66503 485.298C3.13212 485.188 2.63841 484.938 2.2352 484.574C1.76446 484.155 1.37044 483.657 1.07085 483.102C0.722972 482.47 0.4597 481.795 0.287703 481.095C0.0970409 480.333 0.000433324 479.55 1.20371e-05 478.765V136.255V131.011L3.66503 129.703ZM1.4102 480.532C1.2826 480.022 1.21819 479.498 1.2184 478.972L1.21718 478.971V136.029V132.011L3.66264 131.668L646.784 15.4426C647.657 15.2776 648.554 15.2905 649.421 15.4807C650.207 15.6547 650.944 16.0007 651.58 16.4936C652.202 16.9799 652.701 17.6038 653.039 18.3159C653.399 19.0834 653.582 19.9214 653.574 20.7685V594.235C653.581 595.082 653.398 595.92 653.038 596.687C652.699 597.399 652.199 598.022 651.578 598.507C650.941 599 650.204 599.345 649.417 599.519C648.55 599.709 647.653 599.721 646.78 599.556L3.66264 483.334C3.30767 483.262 2.97864 483.096 2.70979 482.854C2.39566 482.574 2.13267 482.242 1.9327 481.872C1.70052 481.45 1.52486 481 1.4102 480.532Z" fill="#CACACA"/>
<path d="M547.248 475.573C547.975 475.678 548.659 475.909 549.229 476.243C549.858 476.612 550.382 477.057 550.773 477.551C551.218 478.104 551.54 478.695 551.729 479.305C551.939 479.97 552.011 480.648 551.943 481.318C551.883 481.96 551.687 482.588 551.359 483.184C551.073 483.708 550.657 484.192 550.127 484.615C549.664 484.987 549.081 485.282 548.417 485.478C547.792 485.659 547.094 485.715 546.405 485.64L66.3631 425.222C65.9812 425.174 65.63 425.038 65.3702 424.837C65.0384 424.587 64.7765 424.3 64.5985 423.989C64.3721 423.606 64.2136 423.209 64.1261 422.805C64.021 422.337 63.9857 421.866 64.0205 421.398C64.0509 420.935 64.1522 420.477 64.3226 420.032C64.4646 419.654 64.6789 419.292 64.9604 418.955C65.1755 418.685 65.4741 418.451 65.837 418.268C66.1296 418.121 66.4988 418.056 66.8713 418.087L66.9565 418.093L547.248 475.573Z" fill="#E1E3E5"/>
<path d="M544.708 505.948C545.439 506.067 546.12 506.309 546.687 506.652C547.314 507.031 547.838 507.481 548.229 507.981C548.673 508.539 548.995 509.134 549.184 509.747C549.394 510.414 549.466 511.092 549.398 511.763C549.34 512.4 549.144 513.023 548.816 513.614C548.532 514.129 548.116 514.604 547.586 515.018C547.125 515.38 546.542 515.663 545.882 515.846C545.253 516.015 544.556 516.059 543.873 515.97L64.5398 446.752C64.1559 446.696 63.806 446.554 63.5482 446.35C63.2171 446.094 62.9558 445.802 62.7775 445.488C62.5514 445.102 62.3931 444.701 62.3059 444.294C62.2008 443.827 62.1653 443.356 62.2 442.889C62.2299 442.428 62.3309 441.974 62.5012 441.532C62.6423 441.158 62.8562 440.801 63.1377 440.47C63.3534 440.206 63.6532 439.979 64.0167 439.805C64.3111 439.663 64.6806 439.605 65.0494 439.643L65.1346 439.649L544.708 505.948Z" fill="#E1E3E5"/>
<path d="M542.224 535.633C542.957 535.766 543.637 536.018 544.2 536.365C544.828 536.751 545.35 537.205 545.742 537.705C546.185 538.263 546.507 538.856 546.698 539.465C546.908 540.124 546.98 540.794 546.914 541.457C546.857 542.081 546.662 542.692 546.335 543.27C546.053 543.772 545.638 544.233 545.108 544.631C544.648 544.98 544.066 545.249 543.408 545.416C542.776 545.571 542.08 545.601 541.403 545.501L62.7223 468.202C62.3369 468.138 61.9881 467.992 61.7318 467.786C61.4012 467.529 61.1402 467.236 60.9612 466.923C60.7353 466.538 60.5768 466.14 60.4889 465.735C60.3835 465.274 60.3475 464.809 60.3814 464.348C60.4104 463.896 60.5107 463.45 60.6805 463.016C60.8202 462.651 61.0334 462.303 61.3147 461.98C61.5291 461.725 61.8285 461.507 62.1915 461.341C62.4878 461.207 62.8574 461.156 63.2225 461.201L63.3077 461.207L542.224 535.633Z" fill="#E1E3E5"/>
<path d="M428.882 383.957L171.241 140.288L170.136 142.217L427.272 386.018L428.882 383.957Z" fill="#E6E6E6"/>
<path d="M428.882 107.643L427.266 105.713L170.136 371.837L171.245 373.67L428.882 107.643Z" fill="#E6E6E6"/>
<path d="M173.775 136.368L424.906 102.086C426.068 101.921 427.251 102.021 428.367 102.379C429.43 102.727 430.4 103.309 431.205 104.081C432.037 104.88 432.692 105.844 433.126 106.909C433.601 108.086 433.842 109.342 433.834 110.609V379.225C433.837 380.509 433.597 381.783 433.126 382.979C432.688 384.091 432.036 385.107 431.206 385.972C430.406 386.804 429.439 387.461 428.369 387.9C427.273 388.345 426.09 388.542 424.908 388.476L173.775 374.733C172.927 374.678 172.107 374.412 171.388 373.961C170.627 373.484 169.968 372.864 169.447 372.135C168.873 371.337 168.432 370.453 168.141 369.516C167.821 368.498 167.659 367.437 167.661 366.371V145.221C167.661 144.141 167.823 143.068 168.141 142.036C168.435 141.067 168.876 140.149 169.447 139.311C169.969 138.538 170.626 137.865 171.388 137.324C172.097 136.823 172.915 136.495 173.775 136.368ZM424.906 385.712C425.751 385.757 426.594 385.615 427.376 385.295C428.14 384.98 428.83 384.51 429.4 383.915C429.992 383.296 430.457 382.568 430.769 381.773C431.105 380.92 431.276 380.011 431.273 379.095V110.942C431.278 110.039 431.107 109.144 430.769 108.306C430.46 107.543 429.994 106.854 429.4 106.282C428.826 105.731 428.134 105.316 427.376 105.067C426.58 104.81 425.735 104.737 424.906 104.852L173.775 138.67C173.16 138.761 172.575 138.995 172.069 139.354C171.524 139.739 171.053 140.218 170.679 140.769C170.27 141.367 169.955 142.024 169.744 142.716C169.516 143.454 169.4 144.221 169.399 144.993V366.461C169.399 367.224 169.515 367.983 169.744 368.711C169.952 369.381 170.268 370.013 170.679 370.583C171.052 371.103 171.524 371.546 172.069 371.886C172.583 372.206 173.17 372.393 173.775 372.43L424.906 385.712Z" fill="#E6E6E6"/>
<path d="M140.348 166.005L391.48 131.723C392.641 131.558 393.824 131.658 394.941 132.016C396.003 132.364 396.973 132.946 397.778 133.718C398.61 134.517 399.265 135.48 399.699 136.546C400.174 137.722 400.415 138.979 400.407 140.246V408.861C400.411 410.146 400.171 411.419 399.699 412.615C399.261 413.727 398.609 414.744 397.779 415.608C396.979 416.441 396.013 417.097 394.942 417.537C393.846 417.982 392.663 418.179 391.481 418.113L140.348 404.369C139.5 404.314 138.68 404.049 137.961 403.598C137.2 403.121 136.541 402.5 136.021 401.771C135.446 400.974 135.005 400.09 134.714 399.153C134.394 398.134 134.233 397.074 134.234 396.008V174.857C134.235 173.778 134.396 172.705 134.714 171.673C135.009 170.704 135.449 169.785 136.021 168.947C136.542 168.175 137.199 167.502 137.961 166.961C138.67 166.459 139.488 166.131 140.348 166.005Z" fill="#7E0B0D"/>
<path d="M130.445 166.005L381.576 131.723C382.737 131.558 383.921 131.658 385.037 132.016C386.1 132.364 387.07 132.946 387.875 133.718C388.707 134.517 389.362 135.48 389.796 136.546C390.271 137.722 390.512 138.979 390.504 140.246V408.861C390.507 410.146 390.267 411.419 389.796 412.615C389.358 413.727 388.706 414.744 387.876 415.608C387.076 416.441 386.109 417.097 385.039 417.537C383.942 417.982 382.76 418.179 381.578 418.113L130.445 404.369C129.597 404.314 128.776 404.049 128.058 403.598C127.297 403.121 126.638 402.5 126.117 401.771C125.543 400.974 125.101 400.09 124.81 399.153C124.491 398.134 124.329 397.074 124.33 396.008V174.857C124.331 173.778 124.493 172.705 124.81 171.673C125.105 170.704 125.546 169.785 126.117 168.947C126.639 168.175 127.296 167.502 128.058 166.961C128.766 166.459 129.584 166.131 130.445 166.005Z" fill="#5B0A0C"/>
<path d="M647.634 4.59669L647.615 4.60038L647.595 4.6039L5.04211 122.025C5.03717 122.034 5.03235 122.042 5.02771 122.051L5.02026 122.065L5.01276 122.078C4.85455 122.366 4.73505 122.673 4.65704 122.991L4.65485 122.999L4.65265 123.008C4.55103 123.415 4.49982 123.833 4.50006 124.252V124.254V125.631L652.5 9.23735V8.15683V8.13719L652.5 8.11754C652.505 7.52352 652.377 6.93555 652.126 6.39625C651.919 5.96704 651.615 5.58987 651.238 5.29436C650.811 4.96706 650.317 4.73693 649.789 4.62108C649.08 4.46832 648.347 4.46001 647.634 4.59669Z" stroke="#580101" stroke-width="9"/>
</g>
<defs>
<clipPath id="clip0_1795_4318">
<rect width="642" height="603" fill="white"/>
</clipPath>
</defs>
</svg>
