<svg width="674" height="569" viewBox="0 0 674 569" fill="none" xmlns="http://www.w3.org/2000/svg">
<g clip-path="url(#clip0_1763_4145)">
<rect width="674" height="569" fill="white"/>
<path d="M712 0H5C2.23858 0 0 2.23857 0 4.99999V431C0 433.761 2.23858 436 5 436H712C714.761 436 717 433.761 717 431V5C717 2.23858 714.761 0 712 0Z" fill="#E6E6E6"/>
<path d="M703 25H14C11.7909 25 10 26.7909 10 29V422C10 424.209 11.7908 426 14 426H703C705.209 426 707 424.209 707 422V29C707 26.7909 705.209 25 703 25Z" fill="white"/>
<path d="M236.033 65.7637H103.91V209.149H236.033V65.7637Z" fill="#E6E6E6"/>
<path d="M424.619 65.7637H292.496V209.149H424.619V65.7637Z" fill="#E6E6E6"/>
<path d="M613.201 65.7637H481.078V209.149H613.201V65.7637Z" fill="#E6E6E6"/>
<path d="M236.033 235.103H103.91V378.487H236.033V235.103Z" fill="#E6E6E6"/>
<path d="M424.619 235.102H292.496V378.486H424.619V235.102Z" fill="#E6E6E6"/>
<path d="M613.201 235.102H481.078V378.486H613.201V235.102Z" fill="#E6E6E6"/>
<path d="M324.681 273.537C324.533 272.612 325.049 271.708 325.92 271.363L345.999 263.423C347.265 262.922 348.651 263.805 348.731 265.165L351.36 309.864C351.371 310.047 351.403 310.219 351.462 310.392C352.103 312.301 356.094 324.55 354.849 329.96C354.788 330.226 354.761 330.497 354.787 330.769C354.964 332.604 355.516 339.974 353.06 340.465C350.253 341.027 342.391 342.151 341.835 341.588C341.136 340.88 340.187 340.164 339.453 340.836C338.017 342.149 336.136 344.205 335.384 346.508C335.14 347.255 334.628 347.91 333.872 348.126C329.025 349.513 311.442 354.134 310.958 348.326C310.466 342.423 319.88 337.382 322.224 336.222C322.564 336.054 322.857 335.802 323.065 335.485L331.869 322.016C332.141 321.6 332.248 321.098 332.17 320.608L324.681 273.537Z" fill="white"/>
<path d="M375.772 273.537C375.624 272.612 376.14 271.708 377.011 271.363L397.087 263.423C398.353 262.922 399.739 263.806 399.819 265.165L402.448 309.864C402.459 310.047 402.491 310.219 402.55 310.392C403.19 312.301 407.182 324.55 405.937 329.96C405.876 330.226 405.849 330.497 405.875 330.769C406.052 332.604 406.604 339.974 404.148 340.465C401.34 341.027 393.479 342.151 392.923 341.588C392.224 340.88 391.275 340.164 390.541 340.836C389.105 342.149 387.224 344.205 386.472 346.508C386.228 347.255 385.716 347.91 384.96 348.126C380.113 349.513 362.53 354.134 362.046 348.326C361.554 342.423 370.968 337.382 373.312 336.222C373.652 336.054 373.945 335.802 374.153 335.485L382.957 322.016C383.228 321.6 383.336 321.098 383.258 320.608L375.772 273.537Z" fill="white"/>
<path d="M375.642 87.1449C376.825 87.3975 377.53 88.6352 377.212 89.8027C376.113 93.8307 374.379 102.491 377.985 107.591C378.389 108.162 378.573 108.879 378.378 109.55L373.902 124.936C373.788 125.327 373.796 125.741 373.923 126.127C375.799 131.838 390.486 177.178 386.575 185.436C386.429 185.744 386.172 185.948 385.858 186.081C382.791 187.381 364.722 193.883 331.651 183.1C330.656 182.776 330.075 181.725 330.336 180.712L345.076 123.514C345.133 123.294 345.152 123.067 345.132 122.841L343.008 98.4813C342.988 98.2559 343.007 98.0288 343.063 97.8097L345.654 87.7302C345.863 86.9169 346.558 86.3208 347.393 86.2379L349.848 85.9942C351.238 85.8563 352.367 87.1542 352.134 88.5315C351.371 93.0259 350.712 101.478 356.083 103.188C362.168 105.125 368.13 92.2876 370.049 87.685C370.431 86.7683 371.407 86.2408 372.378 86.4482L375.642 87.1449Z" fill="#580101"/>
<path d="M141.351 178.475C140.884 179.507 141.367 180.721 142.416 181.15L145.563 182.438C146.4 182.781 147.364 182.518 147.912 181.798L175.271 145.83C176.312 144.461 178.48 144.957 178.823 146.641L187.281 188.178C187.498 189.245 188.528 189.942 189.599 189.747L192.678 189.187C193.555 189.028 194.221 188.307 194.31 187.421C198.298 147.73 201.501 107.535 197.845 87.3534C197.682 86.4537 196.91 85.81 195.997 85.7707L175.054 84.8707C174.149 84.8318 173.331 85.4062 173.06 86.2707L162.61 119.612L157.348 143.008C157.318 143.14 157.275 143.27 157.219 143.393L141.351 178.475Z" fill="white"/>
<path d="M535.217 85.5128C534.573 85.5127 533.97 85.8216 533.604 86.3515C531.634 89.2071 525.407 98.6055 525.771 102.791C526.166 107.327 530.879 175.225 531.696 187.015C531.766 188.026 532.579 188.791 533.591 188.84L542.745 189.291C543.94 189.35 544.918 188.354 544.839 187.16L541.117 131.356C541.105 131.176 541.117 130.996 541.153 130.82L541.77 127.818C542.229 125.583 545.47 125.736 545.717 128.004L552.138 187.017C552.246 188.011 553.072 188.773 554.072 188.8L566.131 189.122C567.377 189.155 568.349 188.054 568.162 186.822L554.08 94.1064C554.063 93.9936 554.036 93.8825 554 93.7743L551.703 86.8814C551.431 86.0647 550.667 85.5138 549.806 85.5137L535.217 85.5128Z" fill="white"/>
<path d="M584.228 283.84C582.309 281.535 579.261 280.096 576.095 279.196C574.959 278.873 573.022 278.295 571.874 278.019C569.86 277.534 566.801 276.911 564.612 276.562C563.288 276.35 560.898 275.518 559.849 274.683L558.48 273.592C557.862 273.099 557.013 273.017 556.312 273.381L544.725 279.399C544.072 279.738 543.286 279.691 542.677 279.277L536.598 275.137C536.166 274.843 535.62 274.772 535.127 274.947C533.907 275.38 530.662 275.866 529.377 276.021C526.384 276.381 522.068 277.113 521.261 277.252C521.172 277.267 521.083 277.276 520.993 277.279C518.85 277.358 516.136 277.493 513.106 277.726C504.492 278.389 502.199 296.27 501.621 303.57C501.507 305.013 502.949 306.017 504.324 305.564C507.858 304.396 511.528 303.679 515.245 303.43C516.299 303.359 517.193 304.164 517.285 305.216L519.877 334.927C519.972 336.026 520.94 336.838 522.041 336.762C535.936 335.8 550.445 337.174 565.446 340.403C566.478 340.626 567.512 340.017 567.807 339.003L574.684 315.364C574.858 314.767 575.3 314.284 575.88 314.059L591.305 308.058C592.197 307.711 592.715 306.782 592.52 305.845C591.603 301.452 588.741 289.255 584.228 283.84Z" fill="#580101"/>
<path d="M200.529 267.853C199.027 266.051 196.689 264.89 194.224 264.143C193.086 263.798 191.105 263.231 189.947 262.961C188.449 262.612 186.431 262.203 184.827 261.932C183.506 261.709 181.122 260.852 180.074 260.017L179.49 259.552C178.873 259.06 178.023 258.978 177.322 259.342L168.167 264.098C167.514 264.437 166.728 264.39 166.119 263.976L161.284 260.684C160.928 260.442 160.478 260.383 160.073 260.528C159.068 260.884 156.393 261.285 155.334 261.413C152.892 261.706 149.381 262.301 148.667 262.423C148.578 262.438 148.493 262.447 148.403 262.45C146.645 262.515 144.413 262.626 141.929 262.817C135.035 263.348 133.055 277.257 132.511 283.568C132.386 285.009 133.827 286.02 135.208 285.586C137.825 284.765 140.527 284.241 143.263 284.026C144.356 283.939 145.27 284.805 145.309 285.9L147.576 349.538C147.617 350.681 148.606 351.556 149.747 351.482C160.844 350.763 172.414 351.845 184.362 354.366C185.535 354.613 186.672 353.796 186.794 352.604L192.765 294.265C192.842 293.518 193.33 292.877 194.03 292.605L206.087 287.915C206.979 287.568 207.499 286.644 207.301 285.708C206.488 281.877 204.155 272.208 200.529 267.853Z" fill="white"/>
<path d="M662.914 420.69L664.732 507.108L720.66 536.673L822.511 518.479L825.013 428.65L760.446 405.907L662.914 420.69Z" fill="white"/>
<path d="M720.514 537.606L663.85 507.652L662.004 419.924L760.532 404.991L760.742 405.065L825.924 428.023L823.384 519.231L720.514 537.606ZM665.614 506.564L720.805 535.739L821.639 517.727L824.102 429.276L760.359 406.824L663.823 421.455L665.614 506.564Z" fill="#CACACA"/>
<path d="M719.412 444.12L719.193 444.034L662.584 421.519L663.243 419.859L719.634 442.286L824.891 427.764L825.135 429.534L719.412 444.12Z" fill="#CACACA"/>
<path d="M663.267 445.758L662.561 447.399L686.228 457.593L686.934 455.951L663.267 445.758Z" fill="#CACACA"/>
<path d="M673.984 475.241L673.277 476.882L696.945 487.075L697.651 485.434L673.984 475.241Z" fill="#B91D1B"/>
<path d="M356.537 421.377L358.355 507.794L414.283 537.359L516.134 519.166L518.636 429.336L454.069 406.594L356.537 421.377Z" fill="white"/>
<path d="M414.137 538.292L357.473 508.339L355.627 420.611L454.155 405.678L454.365 405.751L519.547 428.71L517.007 519.917L414.137 538.292ZM359.237 507.25L414.428 536.425L515.262 518.414L517.725 429.962L453.982 407.511L357.446 422.142L359.237 507.25Z" fill="#CACACA"/>
<path d="M413.035 444.807L412.816 444.72L356.207 422.206L356.866 420.546L413.257 442.973L518.514 428.451L518.758 430.221L413.035 444.807Z" fill="#CACACA"/>
<path d="M414.038 443.879L412.252 443.9L413.389 537.369L415.175 537.347L414.038 443.879Z" fill="#CACACA"/>
<path d="M400.938 438.299L385.475 432.058L483.711 416.4L499.173 422.641L400.938 438.299Z" fill="#CACACA"/>
<path d="M356.89 446.445L356.184 448.086L379.851 458.279L380.557 456.638L356.89 446.445Z" fill="#CACACA"/>
<path d="M367.607 475.926L366.9 477.567L390.568 487.761L391.274 486.119L367.607 475.926Z" fill="#B91D1B"/>
<path d="M453.697 433.224L455.809 533.542L520.732 567.861L638.965 546.742L641.868 442.464L566.916 416.064L453.697 433.224Z" fill="#B91D1B"/>
<path d="M520.563 568.945L454.786 534.174L452.643 432.336L567.018 415.001L567.262 415.087L642.927 441.737L639.979 547.614L520.563 568.945ZM456.833 532.91L520.902 566.778L637.953 545.869L640.812 443.192L566.817 417.129L454.754 434.113L456.833 532.91Z" fill="#2C2C2C"/>
<path d="M519.283 460.425L519.03 460.324L453.314 434.188L454.08 432.261L519.541 458.295L641.726 441.438L642.01 443.492L519.283 460.425Z" fill="#2C2C2C"/>
<path d="M520.45 459.347L518.377 459.372L519.696 567.874L521.77 567.848L520.45 459.347Z" fill="#2C2C2C"/>
<path d="M506.293 452.917L487.291 445.626L601.327 427.449L620.33 434.741L506.293 452.917Z" fill="#2C2C2C"/>
<path d="M454.107 462.325L453.287 464.23L480.761 476.063L481.581 474.158L454.107 462.325Z" fill="#2C2C2C"/>
<path d="M466.548 496.549L465.729 498.454L493.203 510.287L494.022 508.382L466.548 496.549Z" fill="white"/>
<path d="M0 5C0 2.23858 2.23858 0 5 0H683C685.761 0 688 2.23858 688 5V15H0V5Z" fill="#580101"/>
</g>
<defs>
<clipPath id="clip0_1763_4145">
<rect width="674" height="569" fill="white"/>
</clipPath>
</defs>
</svg>
